<?xml version="1.0" encoding="UTF-8" standalone="no"?>
<svg width="1024" height="1024" viewBox="0 0 1024 1024"
     version="1.1" xmlns="http://www.w3.org/2000/svg">
  <path style="fill:none;stroke:#ffffff;stroke-width:16;stroke-linecap:round"
        d="M 229.157288,794.842712 A 400,400 0 0 1 512.000000,112.000000 A 400,400 0 0 1 794.842712,794.842712" />
  <path style="fill:none;stroke:#ffffff;stroke-width:16;stroke-linecap:round"
        d="M 832 512 H 912" transform="rotate(135.0000,512,512)" />
  <path style="fill:none;stroke:#ffffff;stroke-width:16;stroke-linecap:round"
        d="M 832 512 H 912" transform="rotate(180.0000,512,512)" />
  <path style="fill:none;stroke:#ffffff;stroke-width:16;stroke-linecap:round"
        d="M 832 512 H 912" transform="rotate(225.0000,512,512)" />
  <path style="fill:none;stroke:#ffffff;stroke-width:16;stroke-linecap:round"
        d="M 832 512 H 912" transform="rotate(270.0000,512,512)" />
  <path style="fill:none;stroke:#ffffff;stroke-width:16;stroke-linecap:round"
        d="M 832 512 H 912" transform="rotate(315.0000,512,512)" />
  <path style="fill:none;stroke:#ffffff;stroke-width:16;stroke-linecap:round"
        d="M 832 512 H 912" transform="rotate(360.0000,512,512)" />
  <path style="fill:none;stroke:#ffffff;stroke-width:16;stroke-linecap:round"
        d="M 832 512 H 912" transform="rotate(405.0000,512,512)" />
  <path style="fill:none;stroke:#ffffff;stroke-width:8;stroke-linecap:round"
        d="M 864 512 H 912" transform="rotate(146.2500,512,512)" />
  <path style="fill:none;stroke:#ffffff;stroke-width:8;stroke-linecap:round"
        d="M 864 512 H 912" transform="rotate(157.5000,512,512)" />
  <path style="fill:none;stroke:#ffffff;stroke-width:8;stroke-linecap:round"
        d="M 864 512 H 912" transform="rotate(168.7500,512,512)" />
  <path style="fill:none;stroke:#ffffff;stroke-width:8;stroke-linecap:round"
        d="M 864 512 H 912" transform="rotate(191.2500,512,512)" />
  <path style="fill:none;stroke:#ffffff;stroke-width:8;stroke-linecap:round"
        d="M 864 512 H 912" transform="rotate(202.5000,512,512)" />
  <path style="fill:none;stroke:#ffffff;stroke-width:8;stroke-linecap:round"
        d="M 864 512 H 912" transform="rotate(213.7500,512,512)" />
  <path style="fill:none;stroke:#ffffff;stroke-width:8;stroke-linecap:round"
        d="M 864 512 H 912" transform="rotate(236.2500,512,512)" />
  <path style="fill:none;stroke:#ffffff;stroke-width:8;stroke-linecap:round"
        d="M 864 512 H 912" transform="rotate(247.5000,512,512)" />
  <path style="fill:none;stroke:#ffffff;stroke-width:8;stroke-linecap:round"
        d="M 864 512 H 912" transform="rotate(258.7500,512,512)" />
  <path style="fill:none;stroke:#ffffff;stroke-width:8;stroke-linecap:round"
        d="M 864 512 H 912" transform="rotate(281.2500,512,512)" />
  <path style="fill:none;stroke:#ffffff;stroke-width:8;stroke-linecap:round"
        d="M 864 512 H 912" transform="rotate(292.5000,512,512)" />
  <path style="fill:none;stroke:#ffffff;stroke-width:8;stroke-linecap:round"
        d="M 864 512 H 912" transform="rotate(303.7500,512,512)" />
  <path style="fill:none;stroke:#ffffff;stroke-width:8;stroke-linecap:round"
        d="M 864 512 H 912" transform="rotate(326.2500,512,512)" />
  <path style="fill:none;stroke:#ffffff;stroke-width:8;stroke-linecap:round"
        d="M 864 512 H 912" transform="rotate(337.5000,512,512)" />
  <path style="fill:none;stroke:#ffffff;stroke-width:8;stroke-linecap:round"
        d="M 864 512 H 912" transform="rotate(348.7500,512,512)" />
  <path style="fill:none;stroke:#ffffff;stroke-width:8;stroke-linecap:round"
        d="M 864 512 H 912" transform="rotate(371.2500,512,512)" />
  <path style="fill:none;stroke:#ffffff;stroke-width:8;stroke-linecap:round"
        d="M 864 512 H 912" transform="rotate(382.5000,512,512)" />
  <path style="fill:none;stroke:#ffffff;stroke-width:8;stroke-linecap:round"
        d="M 864 512 H 912" transform="rotate(393.7500,512,512)" />
  <text x="342.29" y="681.71"
        text-anchor="middle" dominant-baseline="central"
        font-family="sans-serif" font-size="85" font-weight="bold"
        fill="#ffffff">0</text>
  <text x="272.00" y="512.00"
        text-anchor="middle" dominant-baseline="central"
        font-family="sans-serif" font-size="85" font-weight="bold"
        fill="#ffffff">20</text>
  <text x="342.29" y="342.29"
        text-anchor="middle" dominant-baseline="central"
        font-family="sans-serif" font-size="85" font-weight="bold"
        fill="#ffffff">40</text>
  <text x="512.00" y="272.00"
        text-anchor="middle" dominant-baseline="central"
        font-family="sans-serif" font-size="85" font-weight="bold"
        fill="#ffffff">60</text>
  <text x="681.71" y="342.29"
        text-anchor="middle" dominant-baseline="central"
        font-family="sans-serif" font-size="85" font-weight="bold"
        fill="#ffffff">80</text>
  <text x="752.00" y="512.00"
        text-anchor="middle" dominant-baseline="central"
        font-family="sans-serif" font-size="85" font-weight="bold"
        fill="#ffffff">100</text>
  <text x="681.71" y="681.71"
        text-anchor="middle" dominant-baseline="central"
        font-family="sans-serif" font-size="85" font-weight="bold"
        fill="#ffffff">120</text>
  <text x="512" y="752"
        text-anchor="middle" dominant-baseline="central"
        font-family="sans-serif" font-size="85" font-weight="bold"
        fill="#ffffff">°F</text>
</svg>
