<?xml version="1.0" encoding="UTF-8" standalone="no"?>
<svg width="1024" height="1024" viewBox="0 0 1024 1024"
     version="1.1" xmlns="http://www.w3.org/2000/svg">
  <path style="fill:none;stroke:#ffffff;stroke-width:16;stroke-linecap:round"
        d="M 229.157288,794.842712 A 400,400 0 0 1 512.000000,112.000000 A 400,400 0 0 1 794.842712,794.842712" />
  <path style="fill:none;stroke:#ffffff;stroke-width:16;stroke-linecap:round"
        d="M 832 512 H 912" transform="rotate(135.0000,512,512)" />
  <path style="fill:none;stroke:#ffffff;stroke-width:16;stroke-linecap:round"
        d="M 832 512 H 912" transform="rotate(189.0000,512,512)" />
  <path style="fill:none;stroke:#ffffff;stroke-width:16;stroke-linecap:round"
        d="M 832 512 H 912" transform="rotate(243.0000,512,512)" />
  <path style="fill:none;stroke:#ffffff;stroke-width:16;stroke-linecap:round"
        d="M 832 512 H 912" transform="rotate(297.0000,512,512)" />
  <path style="fill:none;stroke:#ffffff;stroke-width:16;stroke-linecap:round"
        d="M 832 512 H 912" transform="rotate(351.0000,512,512)" />
  <path style="fill:none;stroke:#ffffff;stroke-width:16;stroke-linecap:round"
        d="M 832 512 H 912" transform="rotate(405.0000,512,512)" />
  <path style="fill:none;stroke:#ffffff;stroke-width:8;stroke-linecap:round"
        d="M 864 512 H 912" transform="rotate(148.5000,512,512)" />
  <path style="fill:none;stroke:#ffffff;stroke-width:8;stroke-linecap:round"
        d="M 864 512 H 912" transform="rotate(162.0000,512,512)" />
  <path style="fill:none;stroke:#ffffff;stroke-width:8;stroke-linecap:round"
        d="M 864 512 H 912" transform="rotate(175.5000,512,512)" />
  <path style="fill:none;stroke:#ffffff;stroke-width:8;stroke-linecap:round"
        d="M 864 512 H 912" transform="rotate(202.5000,512,512)" />
  <path style="fill:none;stroke:#ffffff;stroke-width:8;stroke-linecap:round"
        d="M 864 512 H 912" transform="rotate(216.0000,512,512)" />
  <path style="fill:none;stroke:#ffffff;stroke-width:8;stroke-linecap:round"
        d="M 864 512 H 912" transform="rotate(229.5000,512,512)" />
  <path style="fill:none;stroke:#ffffff;stroke-width:8;stroke-linecap:round"
        d="M 864 512 H 912" transform="rotate(256.5000,512,512)" />
  <path style="fill:none;stroke:#ffffff;stroke-width:8;stroke-linecap:round"
        d="M 864 512 H 912" transform="rotate(270.0000,512,512)" />
  <path style="fill:none;stroke:#ffffff;stroke-width:8;stroke-linecap:round"
        d="M 864 512 H 912" transform="rotate(283.5000,512,512)" />
  <path style="fill:none;stroke:#ffffff;stroke-width:8;stroke-linecap:round"
        d="M 864 512 H 912" transform="rotate(310.5000,512,512)" />
  <path style="fill:none;stroke:#ffffff;stroke-width:8;stroke-linecap:round"
        d="M 864 512 H 912" transform="rotate(324.0000,512,512)" />
  <path style="fill:none;stroke:#ffffff;stroke-width:8;stroke-linecap:round"
        d="M 864 512 H 912" transform="rotate(337.5000,512,512)" />
  <path style="fill:none;stroke:#ffffff;stroke-width:8;stroke-linecap:round"
        d="M 864 512 H 912" transform="rotate(364.5000,512,512)" />
  <path style="fill:none;stroke:#ffffff;stroke-width:8;stroke-linecap:round"
        d="M 864 512 H 912" transform="rotate(378.0000,512,512)" />
  <path style="fill:none;stroke:#ffffff;stroke-width:8;stroke-linecap:round"
        d="M 864 512 H 912" transform="rotate(391.5000,512,512)" />
  <text x="342.29" y="681.71"
        text-anchor="middle" dominant-baseline="central"
        font-family="sans-serif" font-size="85" font-weight="bold"
        fill="#ffffff">0</text>
  <text x="274.95" y="474.46"
        text-anchor="middle" dominant-baseline="central"
        font-family="sans-serif" font-size="85" font-weight="bold"
        fill="#ffffff">20</text>
  <text x="403.04" y="298.16"
        text-anchor="middle" dominant-baseline="central"
        font-family="sans-serif" font-size="85" font-weight="bold"
        fill="#ffffff">40</text>
  <text x="620.96" y="298.16"
        text-anchor="middle" dominant-baseline="central"
        font-family="sans-serif" font-size="85" font-weight="bold"
        fill="#ffffff">60</text>
  <text x="749.05" y="474.46"
        text-anchor="middle" dominant-baseline="central"
        font-family="sans-serif" font-size="85" font-weight="bold"
        fill="#ffffff">80</text>
  <text x="681.71" y="681.71"
        text-anchor="middle" dominant-baseline="central"
        font-family="sans-serif" font-size="85" font-weight="bold"
        fill="#ffffff">100</text>
  <text x="512" y="752"
        text-anchor="middle" dominant-baseline="central"
        font-family="sans-serif" font-size="85" font-weight="bold"
        fill="#ffffff">PSI</text>
</svg>
