<?xml version="1.0" encoding="UTF-8" standalone="no"?>
<svg width="1024" height="1024" viewBox="0 0 1024 1024"
     version="1.1" xmlns="http://www.w3.org/2000/svg">
  <path style="fill:none;stroke:#ffffff;stroke-width:16;stroke-linecap:round"
        d="M 229.157288,794.842712 A 400,400 0 0 1 512.000000,112.000000 A 400,400 0 0 1 794.842712,794.842712" />
  <path style="fill:none;stroke:#ffffff;stroke-width:16;stroke-linecap:round"
        d="M 832 512 H 912" transform="rotate(135.0000,512,512)" />
  <path style="fill:none;stroke:#ffffff;stroke-width:16;stroke-linecap:round"
        d="M 832 512 H 912" transform="rotate(173.5714,512,512)" />
  <path style="fill:none;stroke:#ffffff;stroke-width:16;stroke-linecap:round"
        d="M 832 512 H 912" transform="rotate(212.1429,512,512)" />
  <path style="fill:none;stroke:#ffffff;stroke-width:16;stroke-linecap:round"
        d="M 832 512 H 912" transform="rotate(250.7143,512,512)" />
  <path style="fill:none;stroke:#ffffff;stroke-width:16;stroke-linecap:round"
        d="M 832 512 H 912" transform="rotate(289.2857,512,512)" />
  <path style="fill:none;stroke:#ffffff;stroke-width:16;stroke-linecap:round"
        d="M 832 512 H 912" transform="rotate(327.8571,512,512)" />
  <path style="fill:none;stroke:#ffffff;stroke-width:16;stroke-linecap:round"
        d="M 832 512 H 912" transform="rotate(366.4286,512,512)" />
  <path style="fill:none;stroke:#ffffff;stroke-width:16;stroke-linecap:round"
        d="M 832 512 H 912" transform="rotate(405.0000,512,512)" />
  <path style="fill:none;stroke:#ffffff;stroke-width:8;stroke-linecap:round"
        d="M 864 512 H 912" transform="rotate(142.7143,512,512)" />
  <path style="fill:none;stroke:#ffffff;stroke-width:8;stroke-linecap:round"
        d="M 864 512 H 912" transform="rotate(150.4286,512,512)" />
  <path style="fill:none;stroke:#ffffff;stroke-width:8;stroke-linecap:round"
        d="M 864 512 H 912" transform="rotate(158.1429,512,512)" />
  <path style="fill:none;stroke:#ffffff;stroke-width:8;stroke-linecap:round"
        d="M 864 512 H 912" transform="rotate(165.8571,512,512)" />
  <path style="fill:none;stroke:#ffffff;stroke-width:8;stroke-linecap:round"
        d="M 864 512 H 912" transform="rotate(181.2857,512,512)" />
  <path style="fill:none;stroke:#ffffff;stroke-width:8;stroke-linecap:round"
        d="M 864 512 H 912" transform="rotate(189.0000,512,512)" />
  <path style="fill:none;stroke:#ffffff;stroke-width:8;stroke-linecap:round"
        d="M 864 512 H 912" transform="rotate(196.7143,512,512)" />
  <path style="fill:none;stroke:#ffffff;stroke-width:8;stroke-linecap:round"
        d="M 864 512 H 912" transform="rotate(204.4286,512,512)" />
  <path style="fill:none;stroke:#ffffff;stroke-width:8;stroke-linecap:round"
        d="M 864 512 H 912" transform="rotate(219.8571,512,512)" />
  <path style="fill:none;stroke:#ffffff;stroke-width:8;stroke-linecap:round"
        d="M 864 512 H 912" transform="rotate(227.5714,512,512)" />
  <path style="fill:none;stroke:#ffffff;stroke-width:8;stroke-linecap:round"
        d="M 864 512 H 912" transform="rotate(235.2857,512,512)" />
  <path style="fill:none;stroke:#ffffff;stroke-width:8;stroke-linecap:round"
        d="M 864 512 H 912" transform="rotate(243.0000,512,512)" />
  <path style="fill:none;stroke:#ffffff;stroke-width:8;stroke-linecap:round"
        d="M 864 512 H 912" transform="rotate(258.4286,512,512)" />
  <path style="fill:none;stroke:#ffffff;stroke-width:8;stroke-linecap:round"
        d="M 864 512 H 912" transform="rotate(266.1429,512,512)" />
  <path style="fill:none;stroke:#ffffff;stroke-width:8;stroke-linecap:round"
        d="M 864 512 H 912" transform="rotate(273.8571,512,512)" />
  <path style="fill:none;stroke:#ffffff;stroke-width:8;stroke-linecap:round"
        d="M 864 512 H 912" transform="rotate(281.5714,512,512)" />
  <path style="fill:none;stroke:#ffffff;stroke-width:8;stroke-linecap:round"
        d="M 864 512 H 912" transform="rotate(297.0000,512,512)" />
  <path style="fill:none;stroke:#ffffff;stroke-width:8;stroke-linecap:round"
        d="M 864 512 H 912" transform="rotate(304.7143,512,512)" />
  <path style="fill:none;stroke:#ffffff;stroke-width:8;stroke-linecap:round"
        d="M 864 512 H 912" transform="rotate(312.4286,512,512)" />
  <path style="fill:none;stroke:#ffffff;stroke-width:8;stroke-linecap:round"
        d="M 864 512 H 912" transform="rotate(320.1429,512,512)" />
  <path style="fill:none;stroke:#ffffff;stroke-width:8;stroke-linecap:round"
        d="M 864 512 H 912" transform="rotate(335.5714,512,512)" />
  <path style="fill:none;stroke:#ffffff;stroke-width:8;stroke-linecap:round"
        d="M 864 512 H 912" transform="rotate(343.2857,512,512)" />
  <path style="fill:none;stroke:#ffffff;stroke-width:8;stroke-linecap:round"
        d="M 864 512 H 912" transform="rotate(351.0000,512,512)" />
  <path style="fill:none;stroke:#ffffff;stroke-width:8;stroke-linecap:round"
        d="M 864 512 H 912" transform="rotate(358.7143,512,512)" />
  <path style="fill:none;stroke:#ffffff;stroke-width:8;stroke-linecap:round"
        d="M 864 512 H 912" transform="rotate(374.1429,512,512)" />
  <path style="fill:none;stroke:#ffffff;stroke-width:8;stroke-linecap:round"
        d="M 864 512 H 912" transform="rotate(381.8571,512,512)" />
  <path style="fill:none;stroke:#ffffff;stroke-width:8;stroke-linecap:round"
        d="M 864 512 H 912" transform="rotate(389.5714,512,512)" />
  <path style="fill:none;stroke:#ffffff;stroke-width:8;stroke-linecap:round"
        d="M 864 512 H 912" transform="rotate(397.2857,512,512)" />
  <text x="342.29" y="681.71"
        text-anchor="middle" dominant-baseline="central"
        font-family="sans-serif" font-size="85" font-weight="bold"
        fill="#ffffff">0</text>
  <text x="273.51" y="538.87"
        text-anchor="middle" dominant-baseline="central"
        font-family="sans-serif" font-size="85" font-weight="bold"
        fill="#ffffff">1</text>
  <text x="308.79" y="384.31"
        text-anchor="middle" dominant-baseline="central"
        font-family="sans-serif" font-size="85" font-weight="bold"
        fill="#ffffff">2</text>
  <text x="432.73" y="285.47"
        text-anchor="middle" dominant-baseline="central"
        font-family="sans-serif" font-size="85" font-weight="bold"
        fill="#ffffff">3</text>
  <text x="591.27" y="285.47"
        text-anchor="middle" dominant-baseline="central"
        font-family="sans-serif" font-size="85" font-weight="bold"
        fill="#ffffff">4</text>
  <text x="715.21" y="384.31"
        text-anchor="middle" dominant-baseline="central"
        font-family="sans-serif" font-size="85" font-weight="bold"
        fill="#ffffff">5</text>
  <text x="750.49" y="538.87"
        text-anchor="middle" dominant-baseline="central"
        font-family="sans-serif" font-size="85" font-weight="bold"
        fill="#ffffff">6</text>
  <text x="681.71" y="681.71"
        text-anchor="middle" dominant-baseline="central"
        font-family="sans-serif" font-size="85" font-weight="bold"
        fill="#ffffff">7</text>
  <text x="512" y="752"
        text-anchor="middle" dominant-baseline="central"
        font-family="sans-serif" font-size="85" font-weight="bold"
        fill="#ffffff">BAR</text>
</svg>
